<?xml version="1.0" standalone="no"?>
  <!DOCTYPE svg PUBLIC "-//W3C//DTD SVG 1.1//EN" "http://www.w3.org/Graphics/SVG/1.1/DTD/svg11.dtd" >
  <svg>
  <metadata>
  Created by font-carrier
  </metadata>
  <defs>
  <font id="BigJohn" horiz-adv-x="1246" vert-adv-y="1246" >
    <font-face
      
      font-family="Big John"
      
      font-weight="400"
      
      font-stretch="normal"
      
      units-per-em="1000"
      
      ascent="750"
      
      descent="-250"
      
    />
      <missing-glyph />

      

      
      <glyph glyph-name="uni24" unicode="&#x24;" d="M250-52L406-52L406 16C492 49 554 132 554 231C554 286 536 336 504 376C462 430 396 465 323 465C292 465 267 490 267 521C267 552 292 578 323 578C354 578 380 552 380 521L554 521C554 619 492 703 406 736L406 815L250 815L250 739C158 709 93 622 93 520C93 392 195 290 323 290C354 290 380 264 380 233C380 202 354 177 323 177C292 177 267 202 267 234L92 234C92 128 158 42 250 12Z"  horiz-adv-x="833" vert-adv-y="1000"  />

      
      <glyph glyph-name="uni4f" unicode="&#x4f;" d="M61 374C61 167 228 0 435 0C642 0 810 167 810 374C810 581 642 750 435 750C228 750 61 581 61 374ZM614 375C614 277 534 196 435 196C337 196 257 277 257 375C257 474 337 554 435 554C534 554 614 474 614 375Z"  horiz-adv-x="871" vert-adv-y="1000"  />

      
      <glyph glyph-name="uni47" unicode="&#x47;" d="M439 403L439 271L584 271C553 226 498 197 439 197C347 197 262 272 262 375C262 478 345 553 439 553C490 553 532 533 564 503L703 641C635 708 542 750 439 750C232 750 65 582 65 375C65 168 232 0 439 0C646 0 814 168 814 375L814 403Z"  horiz-adv-x="846" vert-adv-y="1000"  />

      
      <glyph glyph-name="uni51" unicode="&#x51;" d="M951 0L761 189C793 244 811 307 811 375C811 582 643 750 436 750C229 750 61 582 61 375C61 168 229 0 436 0C504 0 569 18 624 51L676 0ZM258 374C258 474 336 552 436 552C536 552 614 474 614 374C614 362 613 351 611 340L521 430L382 292L474 200C462 197 449 196 436 196C336 196 258 274 258 374Z"  horiz-adv-x="961" vert-adv-y="1000"  />

      
      <glyph glyph-name="uni55" unicode="&#x55;" d="M273 750L75 750L75 296C75 131 206 0 371 0C534 0 667 131 667 296L667 750L469 750L469 299C469 245 425 201 371 201C317 201 273 245 273 299Z"  horiz-adv-x="741" vert-adv-y="1000"  />

      
      <glyph glyph-name="uni43" unicode="&#x43;" d="M697 641C629 709 536 750 433 750C226 750 58 582 58 375C58 168 226 0 433 0C537 0 631 43 699 111L559 249C528 217 484 199 433 199C331 199 257 273 257 375C257 477 331 551 433 551C484 551 528 533 559 502Z"  horiz-adv-x="773" vert-adv-y="1000"  />

      
      <glyph glyph-name="uni44" unicode="&#x44;" d="M76 0L354 0C561 0 729 168 729 375C729 582 561 750 354 750L76 750ZM272 549L355 549C453 549 533 469 533 372C533 274 453 194 355 194L272 194Z"  horiz-adv-x="789" vert-adv-y="1000"  />

      
      <glyph glyph-name="uni32" unicode="&#x32;" d="M67 0L586 0L586 159L374 159L517 362C517 362 562 422 562 500C562 622 465 750 319 750C165 750 65 631 65 503L226 503C226 553 265 592 313 592C366 592 402 544 402 506C402 477 388 452 369 429Z"  horiz-adv-x="650" vert-adv-y="1000"  />

      
      <glyph glyph-name="uni39" unicode="&#x39;" d="M136 0L318 0L536 379C558 416 571 459 571 505C571 640 461 750 326 750C191 750 81 640 81 505C81 383 171 281 287 263ZM238 502C238 551 276 590 326 590C375 590 414 551 414 502C414 452 375 414 326 414C276 414 238 452 238 502Z"  horiz-adv-x="650" vert-adv-y="1000"  />

      
      <glyph glyph-name="uni52" unicode="&#x52;" d="M738 0L579 272C633 322 668 394 668 474C668 626 544 750 392 750L76 750L76 0L273 0L273 199L395 199L511 0ZM273 584L395 584C455 584 503 536 503 476C503 416 455 369 395 369L273 369Z"  horiz-adv-x="759" vert-adv-y="1000"  />

      
      <glyph glyph-name="uni56" unicode="&#x56;" d="M603 751L405 324L208 751L10 751L360 0L450 0L799 751Z"  horiz-adv-x="809" vert-adv-y="1000"  />

      
      <glyph glyph-name="uni59" unicode="&#x59;" d="M753 750L526 750L381 500L237 750L10 750L284 276L284 0L479 0L479 276Z"  horiz-adv-x="762" vert-adv-y="1000"  />

      
      <glyph glyph-name="uni50" unicode="&#x50;" d="M273 584L395 584C455 584 503 536 503 476C503 416 455 369 395 369L273 369ZM76 0L273 0L273 199L396 199C545 199 668 323 668 474C668 626 544 750 392 750L76 750Z"  horiz-adv-x="698" vert-adv-y="1000"  />

      
      <glyph glyph-name="uni58" unicode="&#x58;" d="M535 750L405 563L274 750L34 750L284 391L9 0L249 0L405 220L560 0L800 0L525 391L775 750Z"  horiz-adv-x="809" vert-adv-y="1000"  />

      
      <glyph glyph-name="uni4b" unicode="&#x4b;" d="M525 750L273 497L273 750L76 750L76 0L273 0L273 218L320 266L587 0L865 0L459 407L801 750Z"  horiz-adv-x="858" vert-adv-y="1000"  />

      
      <glyph glyph-name="uni4d" unicode="&#x4d;" d="M165 750L76 750L76 0L274 0L274 384L471 206L667 385L667 0L865 0L865 750L776 750L471 472Z"  horiz-adv-x="940" vert-adv-y="1000"  />

      
      <glyph glyph-name="uni5a" unicode="&#x5a;" d="M685 750L44 750L44 552L344 552L25 0L656 0L656 197L366 197Z"  horiz-adv-x="710" vert-adv-y="1000"  />

      
      <glyph glyph-name="uni4e" unicode="&#x4e;" d="M708 0L708 750L511 750L511 396L156 750L76 750L76 0L273 0L273 355L627 0Z"  horiz-adv-x="783" vert-adv-y="1000"  />

      
      <glyph glyph-name="uni48" unicode="&#x48;" d="M76 750L76 0L273 0L273 286L511 286L511 0L708 0L708 750L511 750L511 483L273 483L273 750Z"  horiz-adv-x="783" vert-adv-y="1000"  />

      
      <glyph glyph-name="uni34" unicode="&#x34;" d="M506 750L307 750L5 319L5 159L348 159L348 0L506 0L506 159L644 159L644 318L506 318ZM198 318L348 532L348 318Z"  horiz-adv-x="650" vert-adv-y="1000"  />

      
      <glyph glyph-name="uni54" unicode="&#x54;" d="M60 555L255 555L255 0L452 0L452 555L651 555L651 751L60 751Z"  horiz-adv-x="711" vert-adv-y="1000"  />

      
      <glyph glyph-name="uni41" unicode="&#x41;" d="M223 0L268 98L575 98L621 0L818 0L465 750L376 750L26 0ZM422 429L498 264L345 264Z"  horiz-adv-x="842" vert-adv-y="1000"  />

      
      <glyph glyph-name="uni37" unicode="&#x37;" d="M34 750L34 590L433 590L92 0L274 0L614 589L614 750Z"  horiz-adv-x="650" vert-adv-y="1000"  />

      
      <glyph glyph-name="uni42" unicode="&#x42;" d="M273 162L273 292L405 292C439 292 470 263 470 227C470 191 441 162 405 162ZM273 457L273 587L368 587C404 587 433 558 433 522C433 486 404 457 368 457ZM446 0C565 0 666 101 666 220C666 288 632 351 581 392C610 429 629 476 629 527C629 647 527 750 407 750L76 750L76 0Z"  horiz-adv-x="708" vert-adv-y="1000"  />

      
      <glyph glyph-name="uni3f" unicode="&#x3f;" d="M178 192L336 192L336 270C437 300 511 394 511 505C511 640 401 750 266 750C131 750 21 640 21 505L21 499L178 499L178 503C180 550 217 586 266 586C315 586 353 548 353 499C353 449 315 410 266 410L178 410ZM177 79C177 33 211 0 257 0C302 0 335 33 335 79C335 124 302 157 257 157C211 157 177 124 177 79Z"  horiz-adv-x="550" vert-adv-y="1000"  />

      
      <glyph glyph-name="uni4a" unicode="&#x4a;" d="M525 750L328 750L328 285C328 230 290 198 239 198C200 198 177 208 162 223C91 150 43 102 19 78C88 12 207 0 232 0C378 0 522 83 525 256Z"  horiz-adv-x="600" vert-adv-y="1000"  />

      
      <glyph glyph-name="uni30" unicode="&#x30;" d="M79 245C79 109 188 0 324 0C460 0 570 109 570 245L570 504C570 640 459 750 324 750C188 750 79 640 79 505ZM236 504C236 552 275 591 324 591C373 591 412 552 412 503L412 246C412 197 373 158 324 158C275 158 236 197 236 246Z"  horiz-adv-x="650" vert-adv-y="1000"  />

      
      <glyph glyph-name="uni53" unicode="&#x53;" d="M526 520C526 648 423 750 295 750C167 750 65 647 65 519C65 391 167 289 295 289C326 289 352 263 352 232C352 201 326 176 295 176C264 176 239 201 239 233L64 233C64 101 167 0 295 0C423 0 526 102 526 230C526 285 508 335 476 375C434 429 368 464 295 464C264 464 239 489 239 520C239 551 264 577 295 577C326 577 352 551 352 520Z"  horiz-adv-x="590" vert-adv-y="1000"  />

      
      <glyph glyph-name="uni38" unicode="&#x38;" d="M116 541C116 496 130 455 153 421C107 377 79 314 79 245C79 109 188 0 324 0C460 0 570 109 570 245C570 314 541 377 495 421C519 455 533 496 533 541C533 656 439 750 324 750C209 750 116 656 116 541ZM237 245C237 292 274 331 320 333L327 333C374 331 412 292 412 245C412 197 372 158 324 158C276 158 237 197 237 245ZM275 540C275 568 296 590 324 590C352 590 374 568 374 540C374 512 352 491 324 491C296 491 275 512 275 540Z"  horiz-adv-x="650" vert-adv-y="1000"  />

      
      <glyph glyph-name="uni46" unicode="&#x46;" d="M76 0L273 0L273 299L514 299L514 466L273 466L273 588L546 588L546 750L76 750Z"  horiz-adv-x="611" vert-adv-y="1000"  />

      
      <glyph glyph-name="uni35" unicode="&#x35;" d="M325 338C373 338 412 299 412 251C412 202 373 163 325 163C276 163 237 201 237 250L80 250L80 245C80 110 190 0 325 0C460 0 570 110 570 245C570 380 460 490 325 490L238 490L238 591L553 591L553 750L80 750L80 338Z"  horiz-adv-x="650" vert-adv-y="1000"  />

      
      <glyph glyph-name="uni45" unicode="&#x45;" d="M76 0L542 0L542 161L273 161L273 299L511 299L511 465L273 465L273 587L542 587L542 750L76 750Z"  horiz-adv-x="607" vert-adv-y="1000"  />

      
      <glyph glyph-name="uni25" unicode="&#x25;" d="M142 0L317 0L664 750L488 750ZM508 78C508 35 544 0 587 0C630 0 666 35 666 78C666 121 630 159 587 159C544 159 508 121 508 78ZM142 669C142 626 178 591 221 591C264 591 300 626 300 669C300 712 264 750 221 750C178 750 142 712 142 669Z"  horiz-adv-x="833" vert-adv-y="1000"  />

      
      <glyph glyph-name="uni2f" unicode="&#x2f;" d="M22 0L197 0L544 750L368 750Z"  horiz-adv-x="570" vert-adv-y="1000"  />

      
      <glyph glyph-name="uni33" unicode="&#x33;" d="M148 71C148 70 216 0 329 0C442 0 567 93 567 243C567 437 384 483 384 483L572 750L113 750L113 592L268 592L148 419L260 306C260 306 275 333 328 333C381 333 410 284 410 242C410 200 377 157 329 157C281 157 260 183 260 184C260 185 148 72 148 71Z"  horiz-adv-x="650" vert-adv-y="1000"  />

      
      <glyph glyph-name="uni36" unicode="&#x36;" d="M78 247C78 111 189 0 325 0C461 0 572 111 572 247C572 369 481 472 364 491L514 750L330 750L116 381C92 341 78 296 78 247ZM237 247C237 295 276 335 325 335C373 335 413 295 413 247C413 198 373 159 325 159C276 159 237 198 237 247Z"  horiz-adv-x="650" vert-adv-y="1000"  />

      
      <glyph glyph-name="uni26" unicode="&#x26;" d="M214 454C213 452 346 580 346 580C346 580 357 588 369 588C375 588 382 586 388 580C394 574 396 568 396 562C396 551 389 543 389 543L275 427C275 427 192 354 192 237C192 97 321 0 439 0C555 0 612 71 612 71L684-1L794 111L611 294L500 183C500 183 475 157 435 157C378 157 350 212 350 248C350 274 366 298 385 315C385 315 454 385 487 417C520 449 554 499 554 557C554 615 513 750 371 750C229 750 180 624 180 562C180 500 215 456 214 454Z"  horiz-adv-x="833" vert-adv-y="1000"  />

      
      <glyph glyph-name="uni3d" unicode="&#x3d;" d="M117 413L511 413L511 571L117 571ZM117 98L511 98L511 255L117 255Z"  horiz-adv-x="650" vert-adv-y="1000"  />

      
      <glyph glyph-name="uni28" unicode="&#x28;" d="M423 158C303 158 207 254 207 374C207 495 303 591 423 591L423 750C215 750 48 582 48 374C48 166 215 0 423 0Z"  horiz-adv-x="470" vert-adv-y="1000"  />

      
      <glyph glyph-name="uni29" unicode="&#x29;" d="M48 0C256 0 423 166 423 374C423 582 256 750 48 750L48 591C168 591 264 495 264 374C264 254 168 158 48 158L48 0Z"  horiz-adv-x="470" vert-adv-y="1000"  />

      
      <glyph glyph-name="uni2b" unicode="&#x2b;" d="M89 282L246 282L246 125L405 125L405 282L562 282L562 440L405 440L405 598L246 598L246 440L89 440Z"  horiz-adv-x="650" vert-adv-y="1000"  />

      
      <glyph glyph-name="uni2d" unicode="&#x2d;" d="M29 342L423 342L423 500L29 500Z"  horiz-adv-x="461" vert-adv-y="1000"  />

      
      <glyph glyph-name="uni49" unicode="&#x49;" d="M75 0L272 0L272 750L75 750Z"  horiz-adv-x="347" vert-adv-y="1000"  />

      
      <glyph glyph-name="uni5d" unicode="&#x5d;" d="M289 750L52 750L52 594L131 594L131 160L52 160L52 0L289 0Z"  horiz-adv-x="340" vert-adv-y="1000"  />

      
      <glyph glyph-name="uni5b" unicode="&#x5b;" d="M52 0L289 0L289 160L210 160L210 594L289 594L289 750L52 750Z"  horiz-adv-x="340" vert-adv-y="1000"  />

      
      <glyph glyph-name="uni4c" unicode="&#x4c;" d="M76 0L543 0L543 198L273 198L273 750L76 750Z"  horiz-adv-x="608" vert-adv-y="1000"  />

      
      <glyph glyph-name="uni21" unicode="&#x21;" d="M70 79C70 35 105 0 149 0C193 0 228 35 228 79C228 123 193 159 149 159C105 159 70 123 70 79ZM70 200L228 200L228 750L70 750Z"  horiz-adv-x="300" vert-adv-y="1000"  />

      
      <glyph glyph-name="unibf" unicode="&#xbf;" d="M372 558L214 558L214 480C113 450 39 356 39 245C39 110 149 0 284 0C419 0 529 110 529 245L529 251L372 251L372 247C370 200 333 164 284 164C235 164 197 202 197 251C197 301 235 340 284 340L372 340ZM373 671C373 717 339 750 293 750C248 750 215 717 215 671C215 626 248 593 293 593C339 593 373 626 373 671Z"  horiz-adv-x="550" vert-adv-y="1000"  />

      
      <glyph glyph-name="uni5f" unicode="&#x5f;" d="M53-158L447-158L447 0L53 0Z"  horiz-adv-x="500" vert-adv-y="1000"  />

      
      <glyph glyph-name="uni3a" unicode="&#x3a;" d="M61 316C61 272 97 236 141 236C185 236 221 272 221 316C221 360 185 396 141 396C97 396 61 360 61 316ZM61 80C61 36 97 0 141 0C185 0 221 36 221 80C221 124 185 160 141 160C97 160 61 124 61 80Z"  horiz-adv-x="268" vert-adv-y="1000"  />

      
      <glyph glyph-name="uni3b" unicode="&#x3b;" d="M61 316C61 272 97 236 141 236C185 236 221 272 221 316C221 360 185 396 141 396C97 396 61 360 61 316ZM140-82C224-11 219 77 219 77C219 120 183 158 140 158C97 158 61 120 61 77C61 34 97 0 140 0Z"  horiz-adv-x="268" vert-adv-y="1000"  />

      
      <glyph glyph-name="uni2c" unicode="&#x2c;" d="M106-82C190-11 185 77 185 77C185 120 149 158 106 158C63 158 27 120 27 77C27 34 63 0 106 0Z"  horiz-adv-x="240" vert-adv-y="1000"  />

      
      <glyph glyph-name="uni2e" unicode="&#x2e;" d="M41 81C41 36 75 0 120 0C165 0 199 36 199 81C199 126 165 160 120 160C75 160 41 126 41 81Z"  horiz-adv-x="240" vert-adv-y="1000"  />

      
      <glyph glyph-name="uni201D" unicode="&#x201D;" d="M160 510C244 581 239 669 239 669C239 712 203 750 160 750C117 750 81 712 81 669C81 626 117 592 160 592ZM337 510C421 581 416 669 416 669C416 712 380 750 337 750C294 750 258 712 258 669C258 626 294 592 337 592Z"  horiz-adv-x="500" vert-adv-y="1000"  />

      
      <glyph glyph-name="uni201C" unicode="&#x201C;" d="M337 750C253 679 258 591 258 591C258 548 294 510 337 510C380 510 416 548 416 591C416 634 380 668 337 668ZM160 750C76 679 81 591 81 591C81 548 117 510 160 510C203 510 239 548 239 591C239 634 203 668 160 668Z"  horiz-adv-x="500" vert-adv-y="1000"  />

      
      <glyph glyph-name="uni2019" unicode="&#x2019;" d="M142 510C226 581 221 669 221 669C221 712 185 750 142 750C99 750 63 712 63 669C63 626 99 592 142 592Z"  horiz-adv-x="284" vert-adv-y="1000"  />

      
      <glyph glyph-name="uni2018" unicode="&#x2018;" d="M142 750C58 679 63 591 63 591C63 548 99 510 142 510C185 510 221 548 221 591C221 634 185 668 142 668Z"  horiz-adv-x="284" vert-adv-y="1000"  />

      
      <glyph glyph-name="uni5c" unicode="&#x5c;" d="M560 0L214 750L38 750L385 0Z"  horiz-adv-x="570" vert-adv-y="1000"  />

      
      <glyph glyph-name="uni31" unicode="&#x31;" d="M171 0L368 0L368 750L171 750Z"  horiz-adv-x="520" vert-adv-y="1000"  />

      
      <glyph glyph-name="uni61" unicode="&#x61;" d="M223 0L268 98L575 98L621 0L818 0L465 750L376 750L26 0ZM422 429L498 264L345 264Z"  horiz-adv-x="842" vert-adv-y="1000"  />

      
      <glyph glyph-name="uni62" unicode="&#x62;" d="M273 162L273 292L405 292C439 292 470 263 470 227C470 191 441 162 405 162ZM273 457L273 587L368 587C404 587 433 558 433 522C433 486 404 457 368 457ZM446 0C565 0 666 101 666 220C666 288 632 351 581 392C610 429 629 476 629 527C629 647 527 750 407 750L76 750L76 0Z"  horiz-adv-x="708" vert-adv-y="1000"  />

      
      <glyph glyph-name="uni63" unicode="&#x63;" d="M697 641C629 709 536 750 433 750C226 750 58 582 58 375C58 168 226 0 433 0C537 0 631 43 699 111L559 249C528 217 484 199 433 199C331 199 257 273 257 375C257 477 331 551 433 551C484 551 528 533 559 502Z"  horiz-adv-x="773" vert-adv-y="1000"  />

      
      <glyph glyph-name="uni64" unicode="&#x64;" d="M76 0L354 0C561 0 729 168 729 375C729 582 561 750 354 750L76 750ZM272 551L355 551C453 551 533 471 533 374C533 276 453 196 355 196L272 196Z"  horiz-adv-x="789" vert-adv-y="1000"  />

      
      <glyph glyph-name="uni65" unicode="&#x65;" d="M76 0L542 0L542 161L273 161L273 299L511 299L511 465L273 465L273 587L542 587L542 750L76 750Z"  horiz-adv-x="607" vert-adv-y="1000"  />

      
      <glyph glyph-name="uni66" unicode="&#x66;" d="M76 0L273 0L273 299L514 299L514 466L273 466L273 588L546 588L546 750L76 750Z"  horiz-adv-x="611" vert-adv-y="1000"  />

      
      <glyph glyph-name="uni67" unicode="&#x67;" d="M439 403L439 271L584 271C553 226 498 197 439 197C347 197 262 272 262 375C262 478 345 553 439 553C490 553 532 533 564 503L703 641C635 708 542 750 439 750C232 750 65 582 65 375C65 168 232 0 439 0C646 0 814 168 814 375L814 403Z"  horiz-adv-x="846" vert-adv-y="1000"  />

      
      <glyph glyph-name="uni68" unicode="&#x68;" d="M76 750L76 0L273 0L273 286L511 286L511 0L708 0L708 750L511 750L511 483L273 483L273 750Z"  horiz-adv-x="783" vert-adv-y="1000"  />

      
      <glyph glyph-name="uni69" unicode="&#x69;" d="M75 0L272 0L272 750L75 750Z"  horiz-adv-x="347" vert-adv-y="1000"  />

      
      <glyph glyph-name="uni6a" unicode="&#x6a;" d="M525 750L328 750L328 285C328 230 290 198 239 198C200 198 177 208 162 223C91 150 43 102 19 78C88 12 207 0 232 0C378 0 522 83 525 256Z"  horiz-adv-x="600" vert-adv-y="1000"  />

      
      <glyph glyph-name="uni6b" unicode="&#x6b;" d="M525 750L273 497L273 750L76 750L76 0L273 0L273 218L320 266L587 0L865 0L459 407L801 750Z"  horiz-adv-x="858" vert-adv-y="1000"  />

      
      <glyph glyph-name="uni6c" unicode="&#x6c;" d="M76 0L543 0L543 198L273 198L273 750L76 750Z"  horiz-adv-x="608" vert-adv-y="1000"  />

      
      <glyph glyph-name="uni6d" unicode="&#x6d;" d="M165 750L76 750L76 0L274 0L274 384L471 206L667 385L667 0L865 0L865 750L776 750L471 472Z"  horiz-adv-x="940" vert-adv-y="1000"  />

      
      <glyph glyph-name="uni6e" unicode="&#x6e;" d="M708 0L708 750L511 750L511 396L156 750L76 750L76 0L273 0L273 355L627 0Z"  horiz-adv-x="783" vert-adv-y="1000"  />

      
      <glyph glyph-name="uni6f" unicode="&#x6f;" d="M61 374C61 167 228 0 435 0C642 0 810 167 810 374C810 581 642 750 435 750C228 750 61 581 61 374ZM614 375C614 277 534 196 435 196C337 196 257 277 257 375C257 474 337 554 435 554C534 554 614 474 614 375Z"  horiz-adv-x="871" vert-adv-y="1000"  />

      
      <glyph glyph-name="uni70" unicode="&#x70;" d="M273 584L395 584C455 584 503 536 503 476C503 416 455 369 395 369L273 369ZM76 0L273 0L273 199L396 199C545 199 668 323 668 474C668 626 544 750 392 750L76 750Z"  horiz-adv-x="698" vert-adv-y="1000"  />

      
      <glyph glyph-name="uni71" unicode="&#x71;" d="M951 0L761 189C793 244 811 307 811 375C811 582 643 750 436 750C229 750 61 582 61 375C61 168 229 0 436 0C504 0 569 18 624 51L676 0ZM258 374C258 474 336 552 436 552C536 552 614 474 614 374C614 362 613 351 611 340L521 430L382 292L474 200C462 197 449 196 436 196C336 196 258 274 258 374Z"  horiz-adv-x="961" vert-adv-y="1000"  />

      
      <glyph glyph-name="uni72" unicode="&#x72;" d="M738 0L579 272C633 322 668 394 668 474C668 626 544 750 392 750L76 750L76 0L273 0L273 199L395 199L511 0ZM273 584L395 584C455 584 503 536 503 476C503 416 455 369 395 369L273 369Z"  horiz-adv-x="759" vert-adv-y="1000"  />

      
      <glyph glyph-name="uni73" unicode="&#x73;" d="M526 520C526 648 423 750 295 750C167 750 65 647 65 519C65 391 167 289 295 289C326 289 352 263 352 232C352 201 326 176 295 176C264 176 239 201 239 233L64 233C64 101 167 0 295 0C423 0 526 102 526 230C526 285 508 335 476 375C434 429 368 464 295 464C264 464 239 489 239 520C239 551 264 577 295 577C326 577 352 551 352 520Z"  horiz-adv-x="590" vert-adv-y="1000"  />

      
      <glyph glyph-name="uni74" unicode="&#x74;" d="M60 555L255 555L255 0L452 0L452 555L651 555L651 751L60 751Z"  horiz-adv-x="711" vert-adv-y="1000"  />

      
      <glyph glyph-name="uni75" unicode="&#x75;" d="M273 750L75 750L75 296C75 131 206 0 371 0C534 0 667 131 667 296L667 750L469 750L469 299C469 245 425 201 371 201C317 201 273 245 273 299Z"  horiz-adv-x="741" vert-adv-y="1000"  />

      
      <glyph glyph-name="uni76" unicode="&#x76;" d="M603 751L405 324L208 751L10 751L360 0L450 0L799 751Z"  horiz-adv-x="809" vert-adv-y="1000"  />

      
      <glyph glyph-name="uni77" unicode="&#x77;" d="M747 0L889 0L1236 750L1020 750L807 291L664 603L581 603L438 291L226 750L10 750L356 0L498 0L622 267Z"  horiz-adv-x="1246" vert-adv-y="1000"  />

      
      <glyph glyph-name="uni78" unicode="&#x78;" d="M535 750L405 563L274 750L34 750L284 391L9 0L249 0L405 220L560 0L800 0L525 391L775 750Z"  horiz-adv-x="809" vert-adv-y="1000"  />

      
      <glyph glyph-name="uni79" unicode="&#x79;" d="M753 750L526 750L381 500L237 750L10 750L284 276L284 0L479 0L479 276Z"  horiz-adv-x="762" vert-adv-y="1000"  />

      
      <glyph glyph-name="uni7a" unicode="&#x7a;" d="M685 750L44 750L44 552L344 552L25 0L656 0L656 197L366 197Z"  horiz-adv-x="710" vert-adv-y="1000"  />

      
      <glyph glyph-name="unia1" unicode="&#xa1;" d="M70 671C70 627 105 591 149 591C193 591 228 627 228 671C228 715 193 750 149 750C105 750 70 715 70 671ZM70 0L228 0L228 550L70 550Z"  horiz-adv-x="300" vert-adv-y="1000"  />

      
      <glyph glyph-name="uni57" unicode="&#x57;" d="M747 0L889 0L1236 750L1020 750L807 291L664 603L581 603L438 291L226 750L10 750L356 0L498 0L622 267Z"  horiz-adv-x="1246" vert-adv-y="1000"  />

      

  </font>
</defs>
</svg>
